<svg width="264" height="46" viewBox="0 0 264 46" fill="none" xmlns="http://www.w3.org/2000/svg">
<g filter="url(#filter0_dii_3516_17119)">
<path d="M28.0304 41.3382C15.2553 41.3382 4.899 32.8154 4.899 22.302C4.899 11.7886 15.2553 3.26587 28.0304 3.26587C40.8055 3.26587 51.1618 11.7886 51.1618 22.302C51.1618 25.5487 50.1741 28.6056 48.4325 31.2803C48.1625 31.6951 48.0971 32.2147 48.2829 32.6734L51.1232 39.6857C51.3241 40.1817 50.7506 40.6537 50.1479 40.4883L41.6797 38.1654C41.3116 38.0644 40.9196 38.1148 40.5827 38.2943C36.9674 40.2201 32.6575 41.3382 28.0304 41.3382Z" fill="url(#paint0_linear_3516_17119)"/>
</g>
<g filter="url(#filter1_f_3516_17119)">
<path d="M47.3772 38.8181C48.2722 39.4816 48.9473 39.9526 49.2437 39.9526C48.8288 39.725 48.2093 39.3018 47.3772 38.8181C45.3746 37.3335 42.2711 34.8849 39.8461 34.5912C36.3372 34.1663 25.9746 39.8623 19.8436 37.2342C14.6792 35.0205 8.77322 30.4551 8.2798 29.29C7.99653 31.4465 16.1922 36.9003 19.8436 38.6876C24.4078 40.9218 30.4485 39.1696 39.8461 36.278C43.2364 36.6596 45.7257 37.8581 47.3772 38.8181Z" fill="#AE0B1F" fill-opacity="0.3"/>
</g>
<g filter="url(#filter2_ddii_3516_17119)">
<path d="M38.6083 16.5781C38.428 16.1912 37.7369 14.7655 36.0601 13.9472C35.2272 13.5495 34.3043 13.3578 33.3749 13.3896C30.4712 13.4292 28.4914 15.4609 28.0316 15.9578C27.5725 15.4609 25.5919 13.4326 22.6882 13.3896C21.7589 13.3578 20.836 13.5495 20.0031 13.9472C18.3263 14.7662 17.6351 16.1912 17.4549 16.5781C17.101 17.3515 16.9283 18.1903 16.9489 19.035C16.9489 19.3326 16.9752 20.5467 17.7699 22.1362C18.5824 23.7618 19.7313 24.7432 20.5154 25.4803C22.4323 27.2711 24.5736 28.8298 26.8743 30.1351C27.5888 30.5404 28.4744 30.5404 29.1888 30.1351C31.4895 28.8298 33.6308 27.2711 35.5477 25.4803C36.3283 24.7446 37.4807 23.7632 38.2939 22.1362C39.088 20.5467 39.1135 19.3326 39.1142 19.035C39.1352 18.1903 38.9625 17.3514 38.6083 16.5781Z" fill="#FFE4EB"/>
</g>
<g filter="url(#filter3_f_3516_17119)">
<path d="M35.2606 16.7598C34.1363 15.4339 30.4033 16.5038 30.3958 15.3912C36.6603 12.43 39.1136 16.7912 37.1883 19.1695C33.0919 24.2297 36.2244 17.8967 35.2606 16.7598Z" fill="white" fill-opacity="0.7"/>
</g>
<g filter="url(#filter4_f_3516_17119)">
<path d="M26.54 25.7761C24.2219 25.0034 21.9038 20.9854 21.9038 20.3672C21.9038 19.5945 24.9946 24.2307 26.54 25.7761Z" fill="white" fill-opacity="0.99"/>
</g>
<g opacity="0.5" filter="url(#filter5_f_3516_17119)">
<path d="M26.104 33.8997C23.9062 33.5379 18.9263 32.0521 16.589 29.0042C13.6674 25.1943 17.7735 35.716 26.104 33.8997Z" fill="white"/>
</g>
<g filter="url(#filter6_f_3516_17119)">
<path d="M14.4829 10.7366C10.3934 13.0952 10.0907 19.2911 10.4506 22.0941C8.87468 20.0239 10.874 13.505 11.4127 12.6681C11.9514 11.8312 15.5986 7.80775 20.4072 6.80814C25.2158 5.80853 28.87 6.30821 32.8004 7.54565C35.3217 8.33945 36.0867 8.9446 35.4413 9.19456C34.9888 8.90101 31.4442 8.06556 28.0406 7.67375C23.4278 7.14274 19.5947 7.78825 14.4829 10.7366Z" fill="#FFFEFE"/>
</g>
<g opacity="0.5" filter="url(#filter7_f_3516_17119)">
<path d="M19.5981 10.7357C21.6062 9.77185 26.5379 8.1333 30.2006 9.28993C34.7789 10.7357 25.3813 4.47065 19.5981 10.7357Z" fill="white"/>
</g>
<path d="M77.9963 29.7979H77.7669C77.4828 30.3442 77.144 30.8578 76.7507 31.3386C76.3573 31.7975 75.8984 32.2127 75.3739 32.5842C74.8494 32.9338 74.2485 33.207 73.571 33.4037C72.9154 33.6222 72.1943 33.7315 71.4075 33.7315C70.3149 33.7315 69.3096 33.5457 68.3918 33.1742C67.4958 32.7809 66.72 32.2018 66.0644 31.4369C65.4088 30.6502 64.8952 29.6886 64.5237 28.5523C64.1741 27.4159 63.9993 26.0938 63.9993 24.5859C63.9993 22.5535 64.2724 20.6632 64.8188 18.9149C65.3869 17.1448 66.1846 15.6042 67.2117 14.293C68.2607 12.9818 69.5172 11.9546 70.9814 11.2116C72.4456 10.4468 74.0846 10.0643 75.8984 10.0643C77.9089 10.0643 79.6353 10.5342 81.0776 11.4739C82.52 12.3917 83.4924 13.7029 83.9951 15.4075L80.4876 17.2104C80.1816 16.0959 79.6025 15.2436 78.7503 14.6535C77.9198 14.0635 76.8709 13.7685 75.6034 13.7685C73.7895 13.7685 72.3363 14.3148 71.2436 15.4075C70.1728 16.5001 69.4517 17.9971 69.0802 19.8983L68.3918 23.4058C68.2607 24.0395 68.1951 24.6733 68.1951 25.307C68.1951 26.9023 68.5885 28.0933 69.3752 28.8801C70.1837 29.6449 71.2109 30.0274 72.4565 30.0274C73.1777 30.0274 73.866 29.929 74.5216 29.7323C75.1772 29.5138 75.7563 29.2188 76.259 28.8473C76.7835 28.4758 77.2205 28.0278 77.5702 27.5033C77.9417 26.9788 78.193 26.3997 78.3241 25.766L78.5864 24.4548H74.2266L74.915 20.9473H83.2411L80.7498 33.3381H77.2752L77.9963 29.7979ZM92.3032 33.7315C89.9868 33.7315 88.2385 33.0868 87.0584 31.7975C85.9002 30.5081 85.3211 28.7162 85.3211 26.4216C85.3211 25.0448 85.5396 23.7227 85.9767 22.4552C86.4138 21.1658 87.0257 20.0295 87.8124 19.0461C88.621 18.0627 89.5825 17.2869 90.697 16.7187C91.8334 16.1286 93.1009 15.8336 94.4995 15.8336C95.177 15.8336 95.8653 15.921 96.5646 16.0959C97.264 16.2488 97.8977 16.5111 98.4659 16.8826C99.0341 17.2322 99.5039 17.713 99.8754 18.3249C100.247 18.9368 100.433 19.6798 100.433 20.5539C100.433 22.3459 99.5476 23.7445 97.7775 24.7498C96.0292 25.755 93.2211 26.3014 89.353 26.3888C89.2875 26.8258 89.2547 27.1427 89.2547 27.3394C89.2547 28.2791 89.5169 29.033 90.0414 29.6012C90.5659 30.1694 91.4182 30.4535 92.5983 30.4535C93.4505 30.4535 94.2263 30.2677 94.9256 29.8962C95.625 29.5247 96.3461 28.8801 97.0891 27.9622L99.5476 29.9946C98.4768 31.3713 97.3514 32.3438 96.1713 32.912C95.0131 33.4583 93.7237 33.7315 92.3032 33.7315ZM94.2373 18.9149C93.1446 18.9149 92.2158 19.2755 91.451 19.9967C90.6861 20.7178 90.1835 21.7012 89.9431 22.9469L89.7792 23.7664C91.1778 23.7008 92.3142 23.5915 93.1883 23.4386C94.0843 23.2637 94.7727 23.0561 95.2534 22.8158C95.7561 22.5754 96.0948 22.2913 96.2696 21.9635C96.4445 21.6357 96.5319 21.2642 96.5319 20.849C96.5319 20.4556 96.4554 20.1387 96.3024 19.8983C96.1713 19.6361 95.9965 19.4394 95.7779 19.3083C95.5594 19.1553 95.3081 19.057 95.024 19.0133C94.7617 18.9477 94.4995 18.9149 94.2373 18.9149ZM105.831 33.3381C103.471 33.3381 102.291 32.3657 102.291 30.4207C102.291 30.2459 102.302 30.0492 102.324 29.8307C102.346 29.5903 102.379 29.3499 102.422 29.1095L104.356 19.4722H101.898L102.521 16.227H103.733C104.411 16.227 104.859 16.0959 105.077 15.8336C105.318 15.5495 105.493 15.1125 105.602 14.5224L106.192 11.5394H109.896L108.978 16.227H112.42L111.765 19.4722H108.323L106.192 30.0929H109.437L108.782 33.3381H105.831ZM120.673 21.5046L119.165 16.6859H119.002L115.658 33.3381H111.724L116.314 10.4577H120.837L124.935 22.2913L126.443 27.1099H126.606L129.95 10.4577H133.884L129.294 33.3381H124.771L120.673 21.5046ZM141.171 33.7315C138.855 33.7315 137.106 33.0868 135.926 31.7975C134.768 30.5081 134.189 28.7162 134.189 26.4216C134.189 25.0448 134.407 23.7227 134.845 22.4552C135.282 21.1658 135.893 20.0295 136.68 19.0461C137.489 18.0627 138.45 17.2869 139.565 16.7187C140.701 16.1286 141.969 15.8336 143.367 15.8336C144.045 15.8336 144.733 15.921 145.432 16.0959C146.132 16.2488 146.766 16.5111 147.334 16.8826C147.902 17.2322 148.372 17.713 148.743 18.3249C149.115 18.9368 149.3 19.6798 149.3 20.5539C149.3 22.3459 148.415 23.7445 146.645 24.7498C144.897 25.755 142.089 26.3014 138.221 26.3888C138.155 26.8258 138.123 27.1427 138.123 27.3394C138.123 28.2791 138.385 29.033 138.909 29.6012C139.434 30.1694 140.286 30.4535 141.466 30.4535C142.318 30.4535 143.094 30.2677 143.793 29.8962C144.493 29.5247 145.214 28.8801 145.957 27.9622L148.415 29.9946C147.345 31.3713 146.219 32.3438 145.039 32.912C143.881 33.4583 142.592 33.7315 141.171 33.7315ZM143.105 18.9149C142.012 18.9149 141.084 19.2755 140.319 19.9967C139.554 20.7178 139.051 21.7012 138.811 22.9469L138.647 23.7664C140.046 23.7008 141.182 23.5915 142.056 23.4386C142.952 23.2637 143.64 23.0561 144.121 22.8158C144.624 22.5754 144.963 22.2913 145.137 21.9635C145.312 21.6357 145.4 21.2642 145.4 20.849C145.4 20.4556 145.323 20.1387 145.17 19.8983C145.039 19.6361 144.864 19.4394 144.646 19.3083C144.427 19.1553 144.176 19.057 143.892 19.0133C143.63 18.9477 143.367 18.9149 143.105 18.9149ZM151.094 16.227H155.028L155.257 23.0452L155.388 29.0112H155.585L157.847 23.8319L161.354 16.227H165.091L165.616 23.1108L165.976 29.1095H166.173L168.336 23.7664L171.549 16.227H175.482L167.648 33.3381H163.354L162.764 26.5855L162.37 21.3079H162.207L160.076 26.061L156.667 33.3381H152.274L151.094 16.227ZM194.966 17.0137H194.769L191.786 21.2423L186.115 29.0767L183.427 20.9145L182.182 16.9809H182.018L178.74 33.3381H174.773L179.363 10.4577H183.886L187.361 21.7996H187.492L195.425 10.4577H200.243L195.654 33.3381H191.688L194.966 17.0137ZM213.483 33.3381C212.697 33.3381 212.052 33.1305 211.549 32.7153C211.047 32.3001 210.795 31.721 210.795 30.978C210.795 30.8031 210.806 30.6174 210.828 30.4207C210.872 30.224 210.905 30.0711 210.926 29.9618L211.025 29.4373H210.861C210.162 30.8359 209.386 31.9067 208.533 32.6498C207.681 33.3709 206.599 33.7315 205.288 33.7315C204.502 33.7315 203.802 33.5894 203.19 33.3054C202.6 32.9994 202.109 32.5733 201.715 32.0269C201.322 31.4806 201.027 30.8359 200.83 30.0929C200.633 29.3499 200.535 28.5195 200.535 27.6016C200.535 25.9408 200.732 24.4001 201.125 22.9797C201.519 21.5373 202.065 20.2917 202.764 19.2427C203.485 18.1719 204.338 17.3415 205.321 16.7515C206.326 16.1396 207.419 15.8336 208.599 15.8336C209.757 15.8336 210.73 16.1396 211.516 16.7515C212.303 17.3633 212.773 18.161 212.926 19.1444H213.09L213.68 16.227H217.646L214.86 30.0929H216.925L216.302 33.3381H213.483ZM207.091 30.4207C207.725 30.4207 208.293 30.2677 208.796 29.9618C209.32 29.634 209.768 29.2516 210.14 28.8145C210.577 28.3337 210.937 27.7874 211.221 27.1755C211.505 26.5417 211.724 25.8752 211.877 25.1759L212.467 22.2585C212.642 21.3844 212.445 20.6523 211.877 20.0622C211.331 19.4503 210.533 19.1444 209.484 19.1444C207.233 19.1444 205.824 20.5539 205.255 23.373L204.797 25.7332C204.753 25.9736 204.709 26.2686 204.665 26.6182C204.622 26.9679 204.6 27.2738 204.6 27.5361C204.6 28.4102 204.807 29.1095 205.223 29.634C205.66 30.1585 206.283 30.4207 207.091 30.4207ZM223.51 33.3381C221.15 33.3381 219.97 32.3657 219.97 30.4207C219.97 30.2459 219.981 30.0492 220.003 29.8307C220.025 29.5903 220.057 29.3499 220.101 29.1095L222.035 19.4722H219.577L220.2 16.227H221.412C222.09 16.227 222.538 16.0959 222.756 15.8336C222.997 15.5495 223.172 15.1125 223.281 14.5224L223.871 11.5394H227.575L226.657 16.227H230.099L229.443 19.4722H226.002L223.871 30.0929H227.116L226.461 33.3381H223.51ZM236.095 33.7315C235.155 33.7315 234.281 33.5894 233.473 33.3054C232.686 32.9994 231.998 32.5514 231.407 31.9614C230.817 31.3713 230.359 30.6174 230.031 29.6996C229.703 28.7817 229.539 27.7 229.539 26.4543C229.539 24.9465 229.758 23.5478 230.195 22.2585C230.632 20.9473 231.244 19.8218 232.03 18.8822C232.817 17.9206 233.757 17.1776 234.849 16.6531C235.942 16.1068 237.133 15.8336 238.422 15.8336C240.018 15.8336 241.351 16.227 242.422 17.0137C243.514 17.8004 244.181 18.8384 244.421 20.1278L241.078 21.439C240.837 20.7178 240.52 20.1496 240.127 19.7344C239.734 19.3192 239.089 19.1116 238.193 19.1116C236.051 19.1116 234.729 20.4337 234.227 23.078L233.637 25.9299C233.527 26.4325 233.473 26.9023 233.473 27.3394C233.473 28.2572 233.713 29.0112 234.194 29.6012C234.675 30.1694 235.428 30.4535 236.456 30.4535C237.308 30.4535 237.996 30.2131 238.521 29.7323C239.067 29.2297 239.602 28.5085 240.127 27.5689L243.175 29.0112C242.432 30.5628 241.46 31.7428 240.258 32.5514C239.078 33.3381 237.69 33.7315 236.095 33.7315ZM249.344 9.08094H253.311L251.147 20.0295H251.311C251.945 18.6745 252.699 17.6365 253.573 16.9154C254.469 16.1942 255.572 15.8336 256.884 15.8336C258.26 15.8336 259.298 16.227 259.998 17.0137C260.719 17.8004 261.08 18.9149 261.08 20.3573C261.08 20.7288 261.047 21.1112 260.981 21.5046C260.937 21.8761 260.872 22.2803 260.784 22.7174L259.309 30.0929H261.211L260.555 33.3381H257.802C257.015 33.3381 256.392 33.1415 255.933 32.7481C255.474 32.3329 255.245 31.7538 255.245 31.0108C255.245 30.7048 255.277 30.3989 255.343 30.0929L256.753 23.0452C256.884 22.4333 256.949 21.8324 256.949 21.2423C256.949 20.6086 256.796 20.1169 256.49 19.7672C256.184 19.3957 255.671 19.21 254.95 19.21C254.381 19.21 253.857 19.352 253.376 19.6361C252.895 19.8983 252.458 20.2589 252.065 20.7178C251.628 21.2205 251.246 21.7777 250.918 22.3896C250.612 23.0015 250.393 23.6462 250.262 24.3236L248.459 33.3381H244.493L249.344 9.08094Z" fill="white"/>
<defs>
<filter id="filter0_dii_3516_17119" x="8.96454e-05" y="-2.16961e-05" width="53.8855" height="45.6927" filterUnits="userSpaceOnUse" color-interpolation-filters="sRGB">
<feFlood flood-opacity="0" result="BackgroundImageFix"/>
<feColorMatrix in="SourceAlpha" type="matrix" values="0 0 0 0 0 0 0 0 0 0 0 0 0 0 0 0 0 0 127 0" result="hardAlpha"/>
<feOffset dx="-1.08863" dy="0.544315"/>
<feGaussianBlur stdDeviation="1.9051"/>
<feComposite in2="hardAlpha" operator="out"/>
<feColorMatrix type="matrix" values="0 0 0 0 0.565846 0 0 0 0 0.0060328 0 0 0 0 0.274743 0 0 0 0.57 0"/>
<feBlend mode="normal" in2="BackgroundImageFix" result="effect1_dropShadow_3516_17119"/>
<feBlend mode="normal" in="SourceGraphic" in2="effect1_dropShadow_3516_17119" result="shape"/>
<feColorMatrix in="SourceAlpha" type="matrix" values="0 0 0 0 0 0 0 0 0 0 0 0 0 0 0 0 0 0 127 0" result="hardAlpha"/>
<feOffset dx="1.44578" dy="-1.92771"/>
<feGaussianBlur stdDeviation="2.40964"/>
<feComposite in2="hardAlpha" operator="arithmetic" k2="-1" k3="1"/>
<feColorMatrix type="matrix" values="0 0 0 0 0 0 0 0 0 0 0 0 0 0 0 0 0 0 0.25 0"/>
<feBlend mode="normal" in2="shape" result="effect2_innerShadow_3516_17119"/>
<feColorMatrix in="SourceAlpha" type="matrix" values="0 0 0 0 0 0 0 0 0 0 0 0 0 0 0 0 0 0 127 0" result="hardAlpha"/>
<feOffset dx="0.963855" dy="-1.44578"/>
<feGaussianBlur stdDeviation="0.963855"/>
<feComposite in2="hardAlpha" operator="arithmetic" k2="-1" k3="1"/>
<feColorMatrix type="matrix" values="0 0 0 0 0.369428 0 0 0 0 0.00947301 0 0 0 0 0.26864 0 0 0 0.2 0"/>
<feBlend mode="normal" in2="effect2_innerShadow_3516_17119" result="effect3_innerShadow_3516_17119"/>
</filter>
<filter id="filter1_f_3516_17119" x="4.89897" y="25.9165" width="47.7182" height="17.4096" filterUnits="userSpaceOnUse" color-interpolation-filters="sRGB">
<feFlood flood-opacity="0" result="BackgroundImageFix"/>
<feBlend mode="normal" in="SourceGraphic" in2="BackgroundImageFix" result="shape"/>
<feGaussianBlur stdDeviation="1.68675" result="effect1_foregroundBlur_3516_17119"/>
</filter>
<filter id="filter2_ddii_3516_17119" x="10.857" y="7.29593" width="36.7852" height="31.6694" filterUnits="userSpaceOnUse" color-interpolation-filters="sRGB">
<feFlood flood-opacity="0" result="BackgroundImageFix"/>
<feColorMatrix in="SourceAlpha" type="matrix" values="0 0 0 0 0 0 0 0 0 0 0 0 0 0 0 0 0 0 127 0" result="hardAlpha"/>
<feOffset dx="1.21806" dy="1.21806"/>
<feGaussianBlur stdDeviation="3.65418"/>
<feComposite in2="hardAlpha" operator="out"/>
<feColorMatrix type="matrix" values="0 0 0 0 0.550036 0 0 0 0 0.012609 0 0 0 0 0.335065 0 0 0 0.4 0"/>
<feBlend mode="normal" in2="BackgroundImageFix" result="effect1_dropShadow_3516_17119"/>
<feColorMatrix in="SourceAlpha" type="matrix" values="0 0 0 0 0 0 0 0 0 0 0 0 0 0 0 0 0 0 127 0" result="hardAlpha"/>
<feOffset dx="0.617057" dy="1.23411"/>
<feGaussianBlur stdDeviation="0.925585"/>
<feComposite in2="hardAlpha" operator="out"/>
<feColorMatrix type="matrix" values="0 0 0 0 0.550036 0 0 0 0 0.012609 0 0 0 0 0.335065 0 0 0 0.49 0"/>
<feBlend mode="normal" in2="effect1_dropShadow_3516_17119" result="effect2_dropShadow_3516_17119"/>
<feBlend mode="normal" in="SourceGraphic" in2="effect2_dropShadow_3516_17119" result="shape"/>
<feColorMatrix in="SourceAlpha" type="matrix" values="0 0 0 0 0 0 0 0 0 0 0 0 0 0 0 0 0 0 127 0" result="hardAlpha"/>
<feOffset dy="-1.54541"/>
<feGaussianBlur stdDeviation="4.63624"/>
<feComposite in2="hardAlpha" operator="arithmetic" k2="-1" k3="1"/>
<feColorMatrix type="matrix" values="0 0 0 0 0.984314 0 0 0 0 0.0313726 0 0 0 0 0.415686 0 0 0 0.49 0"/>
<feBlend mode="normal" in2="shape" result="effect3_innerShadow_3516_17119"/>
<feColorMatrix in="SourceAlpha" type="matrix" values="0 0 0 0 0 0 0 0 0 0 0 0 0 0 0 0 0 0 127 0" result="hardAlpha"/>
<feOffset dx="-1.21806" dy="-1.21806"/>
<feGaussianBlur stdDeviation="1.21806"/>
<feComposite in2="hardAlpha" operator="arithmetic" k2="-1" k3="1"/>
<feColorMatrix type="matrix" values="0 0 0 0 0.528278 0 0 0 0 0.0115541 0 0 0 0 0.352592 0 0 0 0.25 0"/>
<feBlend mode="normal" in2="effect3_innerShadow_3516_17119" result="effect4_innerShadow_3516_17119"/>
</filter>
<filter id="filter3_f_3516_17119" x="28.4683" y="12.468" width="11.289" height="10.5642" filterUnits="userSpaceOnUse" color-interpolation-filters="sRGB">
<feFlood flood-opacity="0" result="BackgroundImageFix"/>
<feBlend mode="normal" in="SourceGraphic" in2="BackgroundImageFix" result="shape"/>
<feGaussianBlur stdDeviation="0.963855" result="effect1_foregroundBlur_3516_17119"/>
</filter>
<filter id="filter4_f_3516_17119" x="20.3584" y="18.7356" width="7.72706" height="8.58594" filterUnits="userSpaceOnUse" color-interpolation-filters="sRGB">
<feFlood flood-opacity="0" result="BackgroundImageFix"/>
<feBlend mode="normal" in="SourceGraphic" in2="BackgroundImageFix" result="shape"/>
<feGaussianBlur stdDeviation="0.772706" result="effect1_foregroundBlur_3516_17119"/>
</filter>
<filter id="filter5_f_3516_17119" x="13.7237" y="26.2385" width="14.3081" height="9.80147" filterUnits="userSpaceOnUse" color-interpolation-filters="sRGB">
<feFlood flood-opacity="0" result="BackgroundImageFix"/>
<feBlend mode="normal" in="SourceGraphic" in2="BackgroundImageFix" result="shape"/>
<feGaussianBlur stdDeviation="0.963855" result="effect1_foregroundBlur_3516_17119"/>
</filter>
<filter id="filter6_f_3516_17119" x="4.55573" y="0.97443" width="36.4042" height="26.421" filterUnits="userSpaceOnUse" color-interpolation-filters="sRGB">
<feFlood flood-opacity="0" result="BackgroundImageFix"/>
<feBlend mode="normal" in="SourceGraphic" in2="BackgroundImageFix" result="shape"/>
<feGaussianBlur stdDeviation="2.6506" result="effect1_foregroundBlur_3516_17119"/>
</filter>
<filter id="filter7_f_3516_17119" x="17.6704" y="5.96658" width="15.6752" height="6.69673" filterUnits="userSpaceOnUse" color-interpolation-filters="sRGB">
<feFlood flood-opacity="0" result="BackgroundImageFix"/>
<feBlend mode="normal" in="SourceGraphic" in2="BackgroundImageFix" result="shape"/>
<feGaussianBlur stdDeviation="0.963855" result="effect1_foregroundBlur_3516_17119"/>
</filter>
<linearGradient id="paint0_linear_3516_17119" x1="28.0315" y1="6.35908" x2="29.3202" y2="36.7097" gradientUnits="userSpaceOnUse">
<stop stop-color="#FB0825"/>
<stop offset="1" stop-color="#FF6666"/>
</linearGradient>
</defs>
</svg>
