<svg width="69" height="59" viewBox="0 0 69 59" fill="none" xmlns="http://www.w3.org/2000/svg">
<g filter="url(#filter0_dii_2211_40)">
<path d="M35.7383 52.7058C19.4501 52.7058 6.24597 41.8394 6.24597 28.4349C6.24597 15.0304 19.4501 4.16398 35.7383 4.16398C52.0265 4.16398 65.2306 15.0304 65.2306 28.4349C65.2306 32.5745 63.9713 36.472 61.7508 39.8822C61.4065 40.4109 61.3231 41.0735 61.56 41.6583L65.1814 50.5989C65.4376 51.2314 64.7064 51.8331 63.9379 51.6223L53.1411 48.6605C52.6717 48.5318 52.1719 48.5961 51.7424 48.8249C47.1329 51.2803 41.6379 52.7058 35.7383 52.7058Z" fill="url(#paint0_linear_2211_40)"/>
</g>
<g filter="url(#filter1_f_2211_40)">
<path d="M60.4055 49.4927C61.5467 50.3387 62.4075 50.9392 62.7853 50.9392C62.2564 50.649 61.4666 50.1095 60.4055 49.4927C57.8523 47.5998 53.8953 44.4779 50.8035 44.1035C46.3297 43.5618 33.1175 50.8241 25.3004 47.4732C18.7159 44.6508 11.1859 38.8299 10.5568 37.3445C10.1956 40.094 20.645 47.0476 25.3004 49.3264C31.1198 52.1749 38.8216 49.9408 50.8035 46.2541C55.1261 46.7406 58.2999 48.2687 60.4055 49.4927Z" fill="white" fill-opacity="0.3"/>
</g>
<g filter="url(#filter2_ddii_2211_40)">
<path d="M49.2248 21.1366C48.995 20.6432 48.1138 18.8255 45.9758 17.7822C44.9139 17.2751 43.7372 17.0307 42.5523 17.0713C38.8501 17.1218 36.3258 19.7122 35.7396 20.3457C35.1542 19.7122 32.6291 17.1261 28.9269 17.0713C27.742 17.0307 26.5652 17.2751 25.5033 17.7822C23.3654 18.8264 22.4842 20.6432 22.2544 21.1366C21.8032 22.1227 21.583 23.1921 21.6093 24.2691C21.6093 24.6485 21.6428 26.1965 22.6561 28.2231C23.692 30.2958 25.1568 31.547 26.1565 32.4868C28.6006 34.77 31.3307 36.7574 34.2641 38.4216C35.175 38.9384 36.3042 38.9384 37.2151 38.4216C40.1484 36.7574 42.8785 34.77 45.3226 32.4868C46.3178 31.5488 47.7871 30.2975 48.824 28.2231C49.8364 26.1965 49.869 24.6485 49.8699 24.2691C49.8966 23.1921 49.6764 22.1226 49.2248 21.1366Z" fill="#FF5053"/>
</g>
<g filter="url(#filter3_f_2211_40)">
<path d="M44.9568 21.3686C43.5234 19.678 38.7639 21.0421 38.7543 19.6236C46.7415 15.8481 49.8693 21.4086 47.4147 24.4409C42.1918 30.8926 46.1857 22.818 44.9568 21.3686Z" fill="white" fill-opacity="0.7"/>
</g>
<g filter="url(#filter4_f_2211_40)">
<path d="M33.8383 32.864C30.8827 31.8788 27.9271 26.7558 27.9271 25.9676C27.9271 24.9824 31.8679 30.8936 33.8383 32.864Z" fill="white" fill-opacity="0.99"/>
</g>
<g opacity="0.5" filter="url(#filter5_f_2211_40)">
<path d="M33.2825 43.2216C30.4804 42.7602 24.131 40.8659 21.151 36.9798C17.4259 32.1222 22.6612 45.5372 33.2825 43.2216Z" fill="#FFA0A2"/>
</g>
<g filter="url(#filter6_f_2211_40)">
<path d="M18.4649 13.6887C13.2509 16.696 12.865 24.5957 13.3238 28.1696C11.3145 25.53 13.8636 17.2185 14.5505 16.1515C15.2373 15.0844 19.8875 9.95455 26.0184 8.68006C32.1494 7.40556 36.8084 8.04265 41.8196 9.62037C45.0342 10.6325 46.0097 11.404 45.1867 11.7227C44.6098 11.3485 40.0905 10.2833 35.7509 9.7837C29.8696 9.10667 24.9824 9.92968 18.4649 13.6887Z" fill="#FFFEFE"/>
</g>
<g opacity="0.5" filter="url(#filter7_f_2211_40)">
<path d="M24.9874 13.6879C27.5476 12.459 33.8355 10.3699 38.5053 11.8446C44.3427 13.6879 32.3608 5.70002 24.9874 13.6879Z" fill="#FFA0A2"/>
</g>
<defs>
<filter id="filter0_dii_2211_40" x="-1.07288e-06" y="5.36442e-07" width="68.7035" height="58.2578" filterUnits="userSpaceOnUse" color-interpolation-filters="sRGB">
<feFlood flood-opacity="0" result="BackgroundImageFix"/>
<feColorMatrix in="SourceAlpha" type="matrix" values="0 0 0 0 0 0 0 0 0 0 0 0 0 0 0 0 0 0 127 0" result="hardAlpha"/>
<feOffset dx="-1.38799" dy="0.693997"/>
<feGaussianBlur stdDeviation="2.42899"/>
<feComposite in2="hardAlpha" operator="out"/>
<feColorMatrix type="matrix" values="0 0 0 0 0.792762 0 0 0 0 0 0 0 0 0 0.0132127 0 0 0 0.57 0"/>
<feBlend mode="normal" in2="BackgroundImageFix" result="effect1_dropShadow_2211_40"/>
<feBlend mode="normal" in="SourceGraphic" in2="effect1_dropShadow_2211_40" result="shape"/>
<feColorMatrix in="SourceAlpha" type="matrix" values="0 0 0 0 0 0 0 0 0 0 0 0 0 0 0 0 0 0 127 0" result="hardAlpha"/>
<feOffset dx="1.84336" dy="-2.45781"/>
<feGaussianBlur stdDeviation="3.07227"/>
<feComposite in2="hardAlpha" operator="arithmetic" k2="-1" k3="1"/>
<feColorMatrix type="matrix" values="0 0 0 0 0 0 0 0 0 0 0 0 0 0 0 0 0 0 0.25 0"/>
<feBlend mode="normal" in2="shape" result="effect2_innerShadow_2211_40"/>
<feColorMatrix in="SourceAlpha" type="matrix" values="0 0 0 0 0 0 0 0 0 0 0 0 0 0 0 0 0 0 127 0" result="hardAlpha"/>
<feOffset dx="1.22891" dy="-1.84336"/>
<feGaussianBlur stdDeviation="1.22891"/>
<feComposite in2="hardAlpha" operator="arithmetic" k2="-1" k3="1"/>
<feColorMatrix type="matrix" values="0 0 0 0 0.763015 0 0 0 0 0 0 0 0 0 0.0127169 0 0 0 0.2 0"/>
<feBlend mode="normal" in2="effect2_innerShadow_2211_40" result="effect3_innerShadow_2211_40"/>
</filter>
<filter id="filter1_f_2211_40" x="6.24643" y="33.0434" width="60.8401" height="22.197" filterUnits="userSpaceOnUse" color-interpolation-filters="sRGB">
<feFlood flood-opacity="0" result="BackgroundImageFix"/>
<feBlend mode="normal" in="SourceGraphic" in2="BackgroundImageFix" result="shape"/>
<feGaussianBlur stdDeviation="2.15059" result="effect1_foregroundBlur_2211_40"/>
</filter>
<filter id="filter2_ddii_2211_40" x="13.8421" y="9.30189" width="46.901" height="40.3784" filterUnits="userSpaceOnUse" color-interpolation-filters="sRGB">
<feFlood flood-opacity="0" result="BackgroundImageFix"/>
<feColorMatrix in="SourceAlpha" type="matrix" values="0 0 0 0 0 0 0 0 0 0 0 0 0 0 0 0 0 0 127 0" result="hardAlpha"/>
<feOffset dx="1.55301" dy="1.55301"/>
<feGaussianBlur stdDeviation="4.65904"/>
<feComposite in2="hardAlpha" operator="out"/>
<feColorMatrix type="matrix" values="0 0 0 0 0.550036 0 0 0 0 0.012609 0 0 0 0 0.0215662 0 0 0 0.4 0"/>
<feBlend mode="normal" in2="BackgroundImageFix" result="effect1_dropShadow_2211_40"/>
<feColorMatrix in="SourceAlpha" type="matrix" values="0 0 0 0 0 0 0 0 0 0 0 0 0 0 0 0 0 0 127 0" result="hardAlpha"/>
<feOffset dx="0.786742" dy="1.57348"/>
<feGaussianBlur stdDeviation="1.18011"/>
<feComposite in2="hardAlpha" operator="out"/>
<feColorMatrix type="matrix" values="0 0 0 0 0.550036 0 0 0 0 0.012609 0 0 0 0 0.0215662 0 0 0 0.49 0"/>
<feBlend mode="normal" in2="effect1_dropShadow_2211_40" result="effect2_dropShadow_2211_40"/>
<feBlend mode="normal" in="SourceGraphic" in2="effect2_dropShadow_2211_40" result="shape"/>
<feColorMatrix in="SourceAlpha" type="matrix" values="0 0 0 0 0 0 0 0 0 0 0 0 0 0 0 0 0 0 127 0" result="hardAlpha"/>
<feOffset dy="-1.97039"/>
<feGaussianBlur stdDeviation="5.91116"/>
<feComposite in2="hardAlpha" operator="arithmetic" k2="-1" k3="1"/>
<feColorMatrix type="matrix" values="0 0 0 0 0.984314 0 0 0 0 0.0313726 0 0 0 0 0.0472549 0 0 0 0.49 0"/>
<feBlend mode="normal" in2="shape" result="effect3_innerShadow_2211_40"/>
<feColorMatrix in="SourceAlpha" type="matrix" values="0 0 0 0 0 0 0 0 0 0 0 0 0 0 0 0 0 0 127 0" result="hardAlpha"/>
<feOffset dx="-1.55301" dy="-1.55301"/>
<feGaussianBlur stdDeviation="1.55301"/>
<feComposite in2="hardAlpha" operator="arithmetic" k2="-1" k3="1"/>
<feColorMatrix type="matrix" values="0 0 0 0 0.528278 0 0 0 0 0.0115541 0 0 0 0 0.0201661 0 0 0 0.25 0"/>
<feBlend mode="normal" in2="effect3_innerShadow_2211_40" result="effect4_innerShadow_2211_40"/>
</filter>
<filter id="filter3_f_2211_40" x="36.2965" y="15.8966" width="14.3934" height="13.4693" filterUnits="userSpaceOnUse" color-interpolation-filters="sRGB">
<feFlood flood-opacity="0" result="BackgroundImageFix"/>
<feBlend mode="normal" in="SourceGraphic" in2="BackgroundImageFix" result="shape"/>
<feGaussianBlur stdDeviation="1.22891" result="effect1_foregroundBlur_2211_40"/>
</filter>
<filter id="filter4_f_2211_40" x="25.9567" y="23.8874" width="9.85194" height="10.947" filterUnits="userSpaceOnUse" color-interpolation-filters="sRGB">
<feFlood flood-opacity="0" result="BackgroundImageFix"/>
<feBlend mode="normal" in="SourceGraphic" in2="BackgroundImageFix" result="shape"/>
<feGaussianBlur stdDeviation="0.985193" result="effect1_foregroundBlur_2211_40"/>
</filter>
<filter id="filter5_f_2211_40" x="17.4974" y="33.4536" width="18.2429" height="12.4969" filterUnits="userSpaceOnUse" color-interpolation-filters="sRGB">
<feFlood flood-opacity="0" result="BackgroundImageFix"/>
<feBlend mode="normal" in="SourceGraphic" in2="BackgroundImageFix" result="shape"/>
<feGaussianBlur stdDeviation="1.22891" result="effect1_foregroundBlur_2211_40"/>
</filter>
<filter id="filter6_f_2211_40" x="5.80778" y="1.24226" width="46.4153" height="33.6863" filterUnits="userSpaceOnUse" color-interpolation-filters="sRGB">
<feFlood flood-opacity="0" result="BackgroundImageFix"/>
<feBlend mode="normal" in="SourceGraphic" in2="BackgroundImageFix" result="shape"/>
<feGaussianBlur stdDeviation="3.37949" result="effect1_foregroundBlur_2211_40"/>
</filter>
<filter id="filter7_f_2211_40" x="22.5296" y="7.60731" width="19.9858" height="8.53842" filterUnits="userSpaceOnUse" color-interpolation-filters="sRGB">
<feFlood flood-opacity="0" result="BackgroundImageFix"/>
<feBlend mode="normal" in="SourceGraphic" in2="BackgroundImageFix" result="shape"/>
<feGaussianBlur stdDeviation="1.22891" result="effect1_foregroundBlur_2211_40"/>
</filter>
<linearGradient id="paint0_linear_2211_40" x1="35.7397" y1="8.1078" x2="37.3828" y2="46.8046" gradientUnits="userSpaceOnUse">
<stop stop-color="white"/>
<stop offset="1" stop-color="#FFB4B4"/>
</linearGradient>
</defs>
</svg>
