<svg width="22" height="18" viewBox="0 0 22 18" fill="none" xmlns="http://www.w3.org/2000/svg">
<path d="M5.40897 10.492L0.440519 8.88629C0.440519 8.88629 -0.153266 8.64734 0.0379329 8.1055C0.0772924 7.99377 0.15669 7.8987 0.394204 7.7353C1.49508 6.9742 20.7705 0.102439 20.7705 0.102439C20.7705 0.102439 21.3148 -0.0794642 21.6358 0.0415241C21.7152 0.0659047 21.7866 0.110769 21.8428 0.171528C21.899 0.232286 21.9379 0.306757 21.9556 0.387325C21.9902 0.529628 22.0047 0.676034 21.9986 0.822311C21.9971 0.948852 21.9817 1.06614 21.97 1.25006C21.8526 3.12883 18.3394 17.1507 18.3394 17.1507C18.3394 17.1507 18.1292 17.9712 17.3761 17.9993C17.191 18.0052 17.0067 17.9741 16.834 17.9079C16.6613 17.8416 16.5038 17.7415 16.3709 17.6136C14.8931 16.3527 9.78517 12.9479 8.65647 12.1991C8.63101 12.1819 8.60957 12.1595 8.59359 12.1333C8.57761 12.1072 8.56746 12.078 8.56384 12.0476C8.54806 11.9687 8.63458 11.871 8.63458 11.871C8.63458 11.871 17.5288 4.02943 17.7655 3.20623C17.7838 3.14246 17.7146 3.11099 17.6216 3.13893C17.0309 3.35448 6.79029 9.76888 5.66006 10.4768C5.5787 10.5012 5.49271 10.5064 5.40897 10.492Z" fill="white"/>
</svg>
